{
  "accessors": [
    {
      "bufferView": 2,
      "componentType": 5126,
      "count": 1171,
      "max": [
        0.8241000175476074,
        1.6406199932098389,
        3.6521201133728027
      ],
      "min": [
        -0.6131399869918823,
        -2.095590114593506,
        -2.459359884262085
      ],
      "type": "VEC3"
    },
    {
      "bufferView": 2,
      "byteOffset": 14052,
      "componentType": 5126,
      "count": 1171,
      "max": [
        0.9951289892196655,
        0.9977741241455078,
        1.0
      ],
      "min": [
        -0.9893097877502441,
        -0.9979173541069031,
        -0.9969885945320129
      ],
      "type": "VEC3"
    },
    {
      "bufferView": 1,
      "componentType": 5126,
      "count": 1171,
      "max": [
        1.0,
        1.0
      ],
      "min": [
        0.0,
        0.0
      ],
      "type": "VEC2"
    },
    {
      "bufferView": 0,
      "componentType": 5125,
      "count": 2271,
      "type": "SCALAR"
    },
    {
      "bufferView": 2,
      "byteOffset": 28104,
      "componentType": 5126,
      "count": 1923,
      "max": [
        0.48410001397132874,
        1.769279956817627,
        1.5278700590133667
      ],
      "min": [
        -1.7296299934387207,
        -2.027980089187622,
        -1.2551300525665283
      ],
      "type": "VEC3"
    },
    {
      "bufferView": 2,
      "byteOffset": 51180,
      "componentType": 5126,
      "count": 1923,
      "max": [
        0.9999260902404785,
        0.998515248298645,
        0.9985417723655701
      ],
      "min": [
        -0.9999409317970276,
        -0.9994033575057983,
        -0.9981862902641296
      ],
      "type": "VEC3"
    },
    {
      "bufferView": 1,
      "byteOffset": 9368,
      "componentType": 5126,
      "count": 1923,
      "max": [
        1.0,
        1.0
      ],
      "min": [
        0.0,
        0.0
      ],
      "type": "VEC2"
    },
    {
      "bufferView": 0,
      "byteOffset": 9084,
      "componentType": 5125,
      "count": 3798,
      "type": "SCALAR"
    },
    {
      "bufferView": 2,
      "byteOffset": 74256,
      "componentType": 5126,
      "count": 9280,
      "max": [
        0.9125499725341797,
        1.9253000020980835,
        3.7174301147460938
      ],
      "min": [
        -1.704200029373169,
        -2.0429699420928955,
        -1.757140040397644
      ],
      "type": "VEC3"
    },
    {
      "bufferView": 2,
      "byteOffset": 185616,
      "componentType": 5126,
      "count": 9280,
      "max": [
        1.0,
        0.9865344166755676,
        0.9995079040527344
      ],
      "min": [
        -1.0,
        -0.9917510151863098,
        -0.9995070695877075
      ],
      "type": "VEC3"
    },
    {
      "bufferView": 1,
      "byteOffset": 24752,
      "componentType": 5126,
      "count": 9280,
      "max": [
        1.0,
        1.0
      ],
      "min": [
        0.0,
        0.0
      ],
      "type": "VEC2"
    },
    {
      "bufferView": 0,
      "byteOffset": 24276,
      "componentType": 5125,
      "count": 19248,
      "type": "SCALAR"
    },
    {
      "bufferView": 2,
      "byteOffset": 296976,
      "componentType": 5126,
      "count": 1861,
      "max": [
        0.1247899979352951,
        -0.052969999611377716,
        1.5232800245285034
      ],
      "min": [
        -0.12264999747276306,
        -0.3764599859714508,
        0.979170024394989
      ],
      "type": "VEC3"
    },
    {
      "bufferView": 2,
      "byteOffset": 319308,
      "componentType": 5126,
      "count": 1861,
      "max": [
        0.9999708533287048,
        0.9803465008735657,
        0.9614331722259521
      ],
      "min": [
        -0.9999743103981018,
        -0.9818448424339294,
        -0.9610989689826965
      ],
      "type": "VEC3"
    },
    {
      "bufferView": 1,
      "byteOffset": 98992,
      "componentType": 5126,
      "count": 1861,
      "max": [
        1.0,
        1.0
      ],
      "min": [
        0.0,
        0.0
      ],
      "type": "VEC2"
    },
    {
      "bufferView": 0,
      "byteOffset": 101268,
      "componentType": 5125,
      "count": 4056,
      "type": "SCALAR"
    },
    {
      "bufferView": 2,
      "byteOffset": 341640,
      "componentType": 5126,
      "count": 1844,
      "max": [
        0.3763599991798401,
        -0.35343000292778015,
        3.4167799949645996
      ],
      "min": [
        -0.47021999955177307,
        -2.1055500507354736,
        -1.3634400367736816
      ],
      "type": "VEC3"
    },
    {
      "bufferView": 2,
      "byteOffset": 363768,
      "componentType": 5126,
      "count": 1844,
      "max": [
        0.9452345371246338,
        0.9504265785217285,
        0.9518835544586182
      ],
      "min": [
        -0.961198627948761,
        -0.964007556438446,
        -1.0
      ],
      "type": "VEC3"
    },
    {
      "bufferView": 1,
      "byteOffset": 113880,
      "componentType": 5126,
      "count": 1844,
      "max": [
        1.0,
        1.0
      ],
      "min": [
        0.0,
        0.0
      ],
      "type": "VEC2"
    },
    {
      "bufferView": 0,
      "byteOffset": 117492,
      "componentType": 5125,
      "count": 3774,
      "type": "SCALAR"
    },
    {
      "bufferView": 2,
      "byteOffset": 385896,
      "componentType": 5126,
      "count": 13162,
      "max": [
        1.4615700244903564,
        1.7721400260925293,
        4.0063700675964355
      ],
      "min": [
        -1.4615700244903564,
        -2.465130090713501,
        -4.095759868621826
      ],
      "type": "VEC3"
    },
    {
      "bufferView": 2,
      "byteOffset": 543840,
      "componentType": 5126,
      "count": 13162,
      "max": [
        1.0,
        1.0,
        0.9999931454658508
      ],
      "min": [
        -1.0,
        -0.9999668002128601,
        -0.9999999403953552
      ],
      "type": "VEC3"
    },
    {
      "bufferView": 1,
      "byteOffset": 128632,
      "componentType": 5126,
      "count": 13162,
      "max": [
        1.0,
        1.0
      ],
      "min": [
        0.0,
        0.0
      ],
      "type": "VEC2"
    },
    {
      "bufferView": 0,
      "byteOffset": 132588,
      "componentType": 5125,
      "count": 25518,
      "type": "SCALAR"
    },
    {
      "bufferView": 2,
      "byteOffset": 701784,
      "componentType": 5126,
      "count": 11017,
      "max": [
        1.4287999868392944,
        1.7721400260925293,
        4.424759864807129
      ],
      "min": [
        -1.4287999868392944,
        -2.8640100955963135,
        -4.418920040130615
      ],
      "type": "VEC3"
    },
    {
      "bufferView": 2,
      "byteOffset": 833988,
      "componentType": 5126,
      "count": 11017,
      "max": [
        1.0,
        0.9999920725822449,
        0.9997612833976746
      ],
      "min": [
        -1.0,
        -0.9995341897010803,
        -0.9996152520179749
      ],
      "type": "VEC3"
    },
    {
      "bufferView": 1,
      "byteOffset": 233928,
      "componentType": 5126,
      "count": 11017,
      "max": [
        1.0,
        1.0
      ],
      "min": [
        0.0,
        0.0
      ],
      "type": "VEC2"
    },
    {
      "bufferView": 0,
      "byteOffset": 234660,
      "componentType": 5125,
      "count": 22278,
      "type": "SCALAR"
    },
    {
      "bufferView": 2,
      "byteOffset": 966192,
      "componentType": 5126,
      "count": 13109,
      "max": [
        1.4464800357818604,
        1.5740900039672852,
        4.216159820556641
      ],
      "min": [
        -1.4464800357818604,
        -2.222259998321533,
        -3.797489881515503
      ],
      "type": "VEC3"
    },
    {
      "bufferView": 2,
      "byteOffset": 1123500,
      "componentType": 5126,
      "count": 13109,
      "max": [
        1.0,
        0.9999920725822449,
        0.9995697736740112
      ],
      "min": [
        -1.0,
        -0.9991856217384338,
        -0.9991159439086914
      ],
      "type": "VEC3"
    },
    {
      "bufferView": 1,
      "byteOffset": 322064,
      "componentType": 5126,
      "count": 13109,
      "max": [
        1.0,
        1.0
      ],
      "min": [
        0.0,
        0.0
      ],
      "type": "VEC2"
    },
    {
      "bufferView": 0,
      "byteOffset": 323772,
      "componentType": 5125,
      "count": 25860,
      "type": "SCALAR"
    },
    {
      "bufferView": 2,
      "byteOffset": 1280808,
      "componentType": 5126,
      "count": 1478,
      "max": [
        0.8741300106048584,
        1.6672600507736206,
        4.078800201416016
      ],
      "min": [
        -0.8741300106048584,
        -2.5202701091766357,
        -4.1534600257873535
      ],
      "type": "VEC3"
    },
    {
      "bufferView": 2,
      "byteOffset": 1298544,
      "componentType": 5126,
      "count": 1478,
      "max": [
        0.9972149729728699,
        0.999751091003418,
        0.9997085928916931
      ],
      "min": [
        -0.9972149729728699,
        -0.9685491323471069,
        -0.9932349920272827
      ],
      "type": "VEC3"
    },
    {
      "bufferView": 1,
      "byteOffset": 426936,
      "componentType": 5126,
      "count": 1478,
      "max": [
        1.0,
        1.0
      ],
      "min": [
        0.0,
        0.0
      ],
      "type": "VEC2"
    },
    {
      "bufferView": 0,
      "byteOffset": 427212,
      "componentType": 5125,
      "count": 2628,
      "type": "SCALAR"
    },
    {
      "bufferView": 2,
      "byteOffset": 1316280,
      "componentType": 5126,
      "count": 309,
      "max": [
        0.7884500026702881,
        -1.6164699792861938,
        1.4982999563217163
      ],
      "min": [
        -0.7884500026702881,
        -1.940809965133667,
        0.5459799766540527
      ],
      "type": "VEC3"
    },
    {
      "bufferView": 2,
      "byteOffset": 1319988,
      "componentType": 5126,
      "count": 309,
      "max": [
        0.9610081315040588,
        0.9466190934181213,
        0.9327794909477234
      ],
      "min": [
        -0.9610081315040588,
        -0.9578930139541626,
        -0.9114458560943604
      ],
      "type": "VEC3"
    },
    {
      "bufferView": 1,
      "byteOffset": 438760,
      "componentType": 5126,
      "count": 309,
      "max": [
        1.0,
        1.0
      ],
      "min": [
        0.0,
        0.0
      ],
      "type": "VEC2"
    },
    {
      "bufferView": 0,
      "byteOffset": 437724,
      "componentType": 5125,
      "count": 594,
      "type": "SCALAR"
    },
    {
      "bufferView": 2,
      "byteOffset": 1323696,
      "componentType": 5126,
      "count": 83,
      "max": [
        0.49246999621391296,
        0.6751899719238281,
        -2.7887299060821533
      ],
      "min": [
        -0.49246999621391296,
        0.3378100097179413,
        -3.004699945449829
      ],
      "type": "VEC3"
    },
    {
      "bufferView": 2,
      "byteOffset": 1324692,
      "componentType": 5126,
      "count": 83,
      "max": [
        0.6160276532173157,
        0.48000770807266235,
        -0.5984174013137817
      ],
      "min": [
        -0.6160276532173157,
        -0.6370551586151123,
        -0.9930887222290039
      ],
      "type": "VEC3"
    },
    {
      "bufferView": 1,
      "byteOffset": 441232,
      "componentType": 5126,
      "count": 83,
      "max": [
        1.0,
        1.0
      ],
      "min": [
        0.0,
        0.0
      ],
      "type": "VEC2"
    },
    {
      "bufferView": 0,
      "byteOffset": 440100,
      "componentType": 5125,
      "count": 144,
      "type": "SCALAR"
    }
  ],
  "asset": {
    "extras": {
      "author": "e-restrepo1114 (https://sketchfab.com/lelouch1114)",
      "license": "CC-BY-4.0 (http://creativecommons.org/licenses/by/4.0/)",
      "source": "https://sketchfab.com/3d-models/z1000-2014-70cecfa5568347428c5ad72e9a156be9",
      "title": "Z1000 2014"
    },
    "generator": "Sketchfab-10.97.0",
    "version": "2.0"
  },
  "bufferViews": [
    {
      "buffer": 0,
      "byteLength": 440676,
      "name": "floatBufferViews",
      "target": 34963
    },
    {
      "buffer": 0,
      "byteLength": 441896,
      "byteOffset": 440676,
      "byteStride": 8,
      "name": "floatBufferViews",
      "target": 34962
    },
    {
      "buffer": 0,
      "byteLength": 1325688,
      "byteOffset": 882572,
      "byteStride": 12,
      "name": "floatBufferViews",
      "target": 34962
    }
  ],
  "buffers": [
    {
      "byteLength": 2208260,
      "uri": "scene.bin"
    }
  ],
  "extensionsUsed": [
    "KHR_materials_transmission"
  ],
  "materials": [
    {
      "doubleSided": true,
      "name": "negro_brillante.001",
      "pbrMetallicRoughness": {
        "baseColorFactor": [
          0.04011232605020126,
          0.04011232605020126,
          0.04011232605020126,
          1.0
        ],
        "metallicFactor": 0.5671661528920344,
        "roughnessFactor": 0.2504286522080149
      }
    },
    {
      "doubleSided": true,
      "name": "negro_mate.001",
      "pbrMetallicRoughness": {
        "baseColorFactor": [
          0.04167169351225247,
          0.04167169351225247,
          0.04167169351225247,
          1.0
        ],
        "metallicFactor": 0.0,
        "roughnessFactor": 0.6
      }
    },
    {
      "doubleSided": true,
      "name": "aluminio.001",
      "pbrMetallicRoughness": {
        "baseColorFactor": [
          0.800000011920929,
          0.800000011920929,
          0.800000011920929,
          1.0
        ],
        "roughnessFactor": 0.396921304318747
      }
    },
    {
      "doubleSided": true,
      "name": "cobre_rojo.001",
      "pbrMetallicRoughness": {
        "baseColorFactor": [
          0.44672920812723993,
          0.0,
          0.0,
          1.0
        ],
        "metallicFactor": 0.24491697523545472,
        "roughnessFactor": 0.7672433710912087
      }
    },
    {
      "doubleSided": true,
      "name": "cobre.001",
      "pbrMetallicRoughness": {
        "baseColorFactor": [
          0.8000000715255737,
          0.3418632447719574,
          0.1032832637429237,
          1.0
        ],
        "metallicFactor": 0.9806179279985895,
        "roughnessFactor": 0.29963853370543997
      }
    },
    {
      "alphaMode": "BLEND",
      "doubleSided": true,
      "extensions": {
        "KHR_materials_transmission": {
          "transmissionFactor": 0.5483571372112678
        }
      },
      "name": "vidrio",
      "pbrMetallicRoughness": {
        "baseColorFactor": [
          0.36184114269500395,
          0.6831716576944958,
          0.6630924583108957,
          0.4516428627887322
        ],
        "metallicFactor": 0.0,
        "roughnessFactor": 0.6
      }
    }
  ],
  "meshes": [
    {
      "name": "no simetrico_0",
      "primitives": [
        {
          "attributes": {
            "NORMAL": 1,
            "POSITION": 0,
            "TEXCOORD_0": 2
          },
          "indices": 3,
          "material": 0,
          "mode": 4
        }
      ]
    },
    {
      "name": "no simetrico_1",
      "primitives": [
        {
          "attributes": {
            "NORMAL": 5,
            "POSITION": 4,
            "TEXCOORD_0": 6
          },
          "indices": 7,
          "material": 1,
          "mode": 4
        }
      ]
    },
    {
      "name": "no simetrico_2",
      "primitives": [
        {
          "attributes": {
            "NORMAL": 9,
            "POSITION": 8,
            "TEXCOORD_0": 10
          },
          "indices": 11,
          "material": 2,
          "mode": 4
        }
      ]
    },
    {
      "name": "no simetrico_3",
      "primitives": [
        {
          "attributes": {
            "NORMAL": 13,
            "POSITION": 12,
            "TEXCOORD_0": 14
          },
          "indices": 15,
          "material": 3,
          "mode": 4
        }
      ]
    },
    {
      "name": "no simetrico_4",
      "primitives": [
        {
          "attributes": {
            "NORMAL": 17,
            "POSITION": 16,
            "TEXCOORD_0": 18
          },
          "indices": 19,
          "material": 4,
          "mode": 4
        }
      ]
    },
    {
      "name": "simetrico_0",
      "primitives": [
        {
          "attributes": {
            "NORMAL": 21,
            "POSITION": 20,
            "TEXCOORD_0": 22
          },
          "indices": 23,
          "material": 0,
          "mode": 4
        }
      ]
    },
    {
      "name": "simetrico_1",
      "primitives": [
        {
          "attributes": {
            "NORMAL": 25,
            "POSITION": 24,
            "TEXCOORD_0": 26
          },
          "indices": 27,
          "material": 1,
          "mode": 4
        }
      ]
    },
    {
      "name": "simetrico_2",
      "primitives": [
        {
          "attributes": {
            "NORMAL": 29,
            "POSITION": 28,
            "TEXCOORD_0": 30
          },
          "indices": 31,
          "material": 2,
          "mode": 4
        }
      ]
    },
    {
      "name": "simetrico_3",
      "primitives": [
        {
          "attributes": {
            "NORMAL": 33,
            "POSITION": 32,
            "TEXCOORD_0": 34
          },
          "indices": 35,
          "material": 3,
          "mode": 4
        }
      ]
    },
    {
      "name": "simetrico_4",
      "primitives": [
        {
          "attributes": {
            "NORMAL": 37,
            "POSITION": 36,
            "TEXCOORD_0": 38
          },
          "indices": 39,
          "material": 4,
          "mode": 4
        }
      ]
    },
    {
      "name": "simetrico_5",
      "primitives": [
        {
          "attributes": {
            "NORMAL": 41,
            "POSITION": 40,
            "TEXCOORD_0": 42
          },
          "indices": 43,
          "material": 5,
          "mode": 4
        }
      ]
    }
  ],
  "nodes": [
    {
      "children": [
        1
      ],
      "matrix": [
        1.0,
        0.0,
        0.0,
        0.0,
        0.0,
        2.220446049250313e-16,
        -1.0,
        0.0,
        0.0,
        1.0,
        2.220446049250313e-16,
        0.0,
        0.0,
        0.0,
        0.0,
        1.0
      ],
      "name": "Sketchfab_model"
    },
    {
      "children": [
        2,
        8
      ],
      "name": "Root"
    },
    {
      "children": [
        3,
        4,
        5,
        6,
        7
      ],
      "matrix": [
        1.0,
        0.0,
        -0.0,
        0.0,
        0.0,
        -0.0,
        1.0,
        0.0,
        0.0,
        -1.0,
        -0.0,
        0.0,
        -0.0,
        0.13564,
        -0.08760000000000003,
        1.0
      ],
      "name": "no simetrico"
    },
    {
      "mesh": 0,
      "name": "no simetrico_0"
    },
    {
      "mesh": 1,
      "name": "no simetrico_1"
    },
    {
      "mesh": 2,
      "name": "no simetrico_2"
    },
    {
      "mesh": 3,
      "name": "no simetrico_3"
    },
    {
      "mesh": 4,
      "name": "no simetrico_4"
    },
    {
      "children": [
        9,
        10,
        11,
        12,
        13,
        14
      ],
      "matrix": [
        1.0,
        0.0,
        -0.0,
        0.0,
        0.0,
        -0.0,
        1.0,
        0.0,
        0.0,
        -1.0,
        -0.0,
        0.0,
        0.0,
        0.0,
        0.0,
        1.0
      ],
      "name": "simetrico"
    },
    {
      "mesh": 5,
      "name": "simetrico_0"
    },
    {
      "mesh": 6,
      "name": "simetrico_1"
    },
    {
      "mesh": 7,
      "name": "simetrico_2"
    },
    {
      "mesh": 8,
      "name": "simetrico_3"
    },
    {
      "mesh": 9,
      "name": "simetrico_4"
    },
    {
      "mesh": 10,
      "name": "simetrico_5"
    }
  ],
  "scene": 0,
  "scenes": [
    {
      "name": "Sketchfab_Scene",
      "nodes": [
        0
      ]
    }
  ]
}
